<svg width="28" height="37" viewBox="0 0 28 37" fill="none" xmlns="http://www.w3.org/2000/svg">
<path d="M22.3333 24.4083V35.8617C22.3333 36.0091 22.2942 36.1539 22.22 36.2813C22.1458 36.4087 22.0391 36.5142 21.9108 36.5869C21.7826 36.6595 21.6373 36.6969 21.4898 36.6951C21.3424 36.6933 21.1981 36.6525 21.0716 36.5767L14 32.3333L6.92829 36.5767C6.8017 36.6525 6.65722 36.6934 6.50965 36.6951C6.36207 36.6968 6.21669 36.6593 6.08837 36.5864C5.96004 36.5135 5.85337 36.4079 5.77927 36.2802C5.70517 36.1526 5.6663 36.0076 5.66663 35.86V24.41C3.51021 22.6835 1.94328 20.3298 1.18239 17.6742C0.421502 15.0187 0.504219 12.1923 1.41911 9.58579C2.334 6.97926 4.0359 4.72125 6.2896 3.1238C8.5433 1.52635 11.2375 0.668337 14 0.668337C16.7624 0.668337 19.4566 1.52635 21.7103 3.1238C23.964 4.72125 25.6659 6.97926 26.5808 9.58579C27.4957 12.1923 27.5784 15.0187 26.8175 17.6742C26.0566 20.3298 24.4897 22.6835 22.3333 24.41V24.4083ZM14 24C16.6521 24 19.1957 22.9464 21.071 21.0711C22.9464 19.1957 24 16.6522 24 14C24 11.3478 22.9464 8.8043 21.071 6.92893C19.1957 5.05357 16.6521 4 14 4C11.3478 4 8.80426 5.05357 6.92889 6.92893C5.05353 8.8043 3.99996 11.3478 3.99996 14C3.99996 16.6522 5.05353 19.1957 6.92889 21.0711C8.80426 22.9464 11.3478 24 14 24ZM14 20.6667C12.2318 20.6667 10.5362 19.9643 9.28591 18.714C8.03567 17.4638 7.33329 15.7681 7.33329 14C7.33329 12.2319 8.03567 10.5362 9.28591 9.28596C10.5362 8.03571 12.2318 7.33333 14 7.33333C15.7681 7.33333 17.4638 8.03571 18.714 9.28596C19.9642 10.5362 20.6666 12.2319 20.6666 14C20.6666 15.7681 19.9642 17.4638 18.714 18.714C17.4638 19.9643 15.7681 20.6667 14 20.6667Z" fill="#FFB82E"/>
</svg>
