<svg width="300" height="300" viewBox="0 0 300 300" fill="none" xmlns="http://www.w3.org/2000/svg">
<path d="M249.828 283.296C265.986 283.296 279.084 275.734 279.084 266.406C279.084 257.078 265.986 249.516 249.828 249.516C233.67 249.516 220.572 257.078 220.572 266.406C220.572 275.734 233.67 283.296 249.828 283.296Z" fill="#EBEBEB"/>
<path d="M62.868 176.508C78.2337 176.508 90.69 169.317 90.69 160.446C90.69 151.575 78.2337 144.384 62.868 144.384C47.5024 144.384 35.046 151.575 35.046 160.446C35.046 169.317 47.5024 176.508 62.868 176.508Z" fill="#EBEBEB"/>
<path d="M106.77 202.074C122.136 202.074 134.592 194.883 134.592 186.012C134.592 177.141 122.136 169.95 106.77 169.95C91.4043 169.95 78.948 177.141 78.948 186.012C78.948 194.883 91.4043 202.074 106.77 202.074Z" fill="#EBEBEB"/>
<path d="M151.23 228.06C166.596 228.06 179.052 220.869 179.052 211.998C179.052 203.127 166.596 195.936 151.23 195.936C135.864 195.936 123.408 203.127 123.408 211.998C123.408 220.869 135.864 228.06 151.23 228.06Z" fill="#EBEBEB"/>
<path d="M196.434 253.776C211.8 253.776 224.256 246.585 224.256 237.714C224.256 228.843 211.8 221.652 196.434 221.652C181.068 221.652 168.612 228.843 168.612 237.714C168.612 246.585 181.068 253.776 196.434 253.776Z" fill="#EBEBEB"/>
<path d="M225.138 34.554L230.496 37.65C230.496 37.41 230.454 37.17 230.454 36.942V35.4C230.454 32.634 232.392 31.512 234.786 32.892C235.819 33.5312 236.702 34.3868 237.372 35.4C237.762 31.92 240.492 30.6 243.804 32.538C247.404 34.608 250.29 39.636 250.29 43.77V46.098C250.312 47.0256 250.126 47.9463 249.744 48.792L254.196 51.36C254.894 51.8175 255.475 52.4327 255.892 53.156C256.309 53.8793 256.55 54.6904 256.596 55.524C256.596 57.06 255.516 57.684 254.196 56.916L225.138 40.116C224.438 39.6606 223.855 39.0459 223.438 38.3222C223.021 37.5984 222.781 36.7862 222.738 35.952C222.732 34.41 223.8 33.786 225.138 34.554Z" fill="#EBEBEB"/>
<path d="M202.2 50.1779L206.244 52.5179C206.244 52.3319 206.214 52.1579 206.214 51.9779V50.8079C206.214 48.7199 207.678 47.8739 209.484 48.9179C210.263 49.3949 210.928 50.0358 211.434 50.7959C211.728 48.1679 213.786 47.1959 216.288 48.6359C218.994 50.1959 221.184 53.9939 221.184 57.1139V58.8659C221.202 59.5665 221.06 60.262 220.77 60.8999L224.13 62.8439C224.655 63.1893 225.091 63.6532 225.404 64.1983C225.717 64.7434 225.897 65.3544 225.93 65.9819C225.93 67.1399 225.114 67.6139 224.13 67.0319L202.2 54.3719C201.675 54.0253 201.238 53.5603 200.926 53.0142C200.613 52.4681 200.433 51.8563 200.4 51.2279C200.4 50.0699 201.186 49.6019 202.2 50.1779Z" fill="#EBEBEB"/>
<path d="M260.43 258.372C261.882 256.656 265.794 255.102 270.69 254.772C275.586 254.442 280.548 253.848 279.852 250.932C279.102 247.788 274.71 247.008 270.132 248.154C265.134 249.402 260.952 253.692 260.454 256.692L260.43 258.372Z" fill="#37474F"/>
<path d="M260.496 257.328C260.56 257.337 260.626 257.328 260.685 257.301C260.745 257.275 260.796 257.232 260.832 257.178C265.548 250.2 274.146 250.2 276.744 250.98C276.787 250.994 276.833 250.999 276.878 250.995C276.924 250.991 276.968 250.978 277.008 250.957C277.048 250.936 277.084 250.907 277.113 250.871C277.141 250.836 277.163 250.796 277.176 250.752C277.202 250.665 277.193 250.57 277.151 250.489C277.108 250.409 277.035 250.348 276.948 250.32C274.2 249.486 265.2 249.474 260.256 256.8C260.207 256.877 260.19 256.97 260.208 257.059C260.226 257.149 260.277 257.228 260.352 257.28C260.396 257.305 260.445 257.322 260.496 257.328Z" fill="white"/>
<path d="M260.43 258.372C260.43 258.372 264 249.708 270.45 245.706C272.364 244.506 274.446 242.982 275.898 241.926C279.012 239.658 278.298 236.598 274.5 236.1C268.86 235.368 264.06 239.514 261.384 245.454C258.708 251.394 260.43 258.372 260.43 258.372Z" fill="#455A64"/>
<path d="M260.484 254.25C260.567 254.263 260.652 254.244 260.722 254.197C260.792 254.151 260.842 254.08 260.862 253.998C263.4 243.384 272.4 239.16 274.716 238.908C274.76 238.903 274.803 238.89 274.842 238.869C274.881 238.848 274.916 238.819 274.944 238.785C274.972 238.75 274.992 238.71 275.005 238.668C275.017 238.625 275.021 238.58 275.016 238.536C275.005 238.448 274.96 238.367 274.891 238.312C274.821 238.257 274.732 238.232 274.644 238.242C271.836 238.542 262.818 242.97 260.208 253.842C260.197 253.885 260.195 253.93 260.202 253.973C260.208 254.017 260.223 254.059 260.246 254.097C260.269 254.135 260.299 254.168 260.335 254.194C260.371 254.22 260.411 254.239 260.454 254.25H260.484Z" fill="white"/>
<path d="M262.278 154.8C265.152 154.122 267.018 156.546 268.878 161.064C270.738 165.582 274.032 176.586 274.8 179.604C275.148 180.954 266.586 193.056 266.952 192.876C267.066 192.822 263.61 187.044 263.61 187.044L267.81 179.004L264.81 171.696L262.278 154.8Z" fill="#FFA8A7"/>
<path d="M266.364 256.8C266.754 256.95 266.85 257.688 266.91 259.164C266.952 260.286 267.192 262.236 265.884 262.626C264.576 263.016 262.662 262.812 261.822 261.762C260.772 260.448 260.064 259.29 258.576 257.688C257.28 256.296 255.876 254.994 255.354 253.044C254.88 251.28 255.276 250.518 256.476 250.002C258.132 249.3 260.73 251.604 262.026 251.964C263.142 252.246 265.974 256.62 266.364 256.8Z" fill="#263238"/>
<path d="M266.364 254.4V257.232C265.684 257.669 264.897 257.912 264.09 257.934C263.282 257.956 262.483 257.757 261.78 257.358C261.702 257.184 261.474 254.4 261.474 254.4H266.364Z" fill="#FFA8A7"/>
<path d="M252.876 266.4C252.876 266.4 253.392 267.972 253.674 269.352C253.896 270.45 254.214 272.28 253.83 273.102C253.446 273.924 251.952 274.458 249.63 274.44C248.13 274.44 245.784 275.454 244.182 276.348C242.58 277.242 240.726 277.278 238.974 277.068C236.91 276.828 234.774 275.628 234.438 274.776C234.102 273.924 234.534 273.51 239.4 271.434C239.442 271.434 244.53 269.118 246.882 266.52L252.876 266.4Z" fill="#263238"/>
<path d="M252.876 264.444C252.876 264.444 252.876 265.788 252.876 266.556C252.876 267.324 251.97 268.47 249.624 268.386C247.974 268.326 246.816 267.882 246.882 266.526V264.564L252.876 264.444Z" fill="#FFA8A7"/>
<path d="M269.4 233.454C269.25 227.454 268.02 224.85 268.02 224.85C268.02 224.85 268.476 217.464 269.472 208.428C270.984 194.658 270.288 191.994 267.57 185.796C267.57 185.796 244.398 183.45 243.696 193.08C242.814 205.08 242.706 226.338 243.03 230.574C243.354 234.81 243.342 234.024 244.368 242.574C245.184 249.354 246.864 264.54 246.864 264.54C247.797 265.014 248.833 265.251 249.879 265.231C250.925 265.21 251.951 264.931 252.864 264.42C252.864 264.42 254.754 245.136 254.556 240.252C254.316 234.282 253.956 232.764 253.956 232.764C253.956 232.764 256.668 215.13 257.088 212.016C257.088 212.016 257.466 217.584 257.784 221.82C258.102 226.056 258.072 227.784 258.984 236.544C259.686 243.414 261.384 255.144 261.384 255.144C262.199 255.475 263.079 255.614 263.956 255.549C264.834 255.485 265.684 255.219 266.442 254.772C266.442 254.772 269.544 238.29 269.4 233.454Z" fill="#00F4D7"/>
<path d="M250.41 151.68L251.496 160.632L259.368 159.924L258.468 149.982L250.41 151.68Z" fill="#FFA8A7"/>
<path d="M267.048 159.126C266.184 156.774 264.198 154.326 261.174 154.866C260.382 155.016 259.692 155.13 258.948 155.28C258.882 157.338 254.994 158.406 251.118 157.158C249.954 157.494 248.886 157.83 247.92 158.178C245.148 159.168 244.038 163.77 243.972 171.468C243.906 179.166 243.096 198.372 243.096 198.372L246.336 199.392L247.848 193.77L248.448 200.502C252.129 201.36 255.96 201.341 259.632 200.448C267.96 198.648 270.546 194.136 270.546 194.136C269.173 188.703 266.939 183.526 263.928 178.8C268.104 167.718 268.332 162.6 267.048 159.126Z" fill="#37474F"/>
<path d="M244.56 140.304C244.088 139.235 243.896 138.063 244.001 136.899C244.106 135.736 244.505 134.618 245.16 133.65C247.8 129.504 252.894 128.796 258.96 130.41C261.067 131.057 262.923 132.338 264.275 134.079C265.627 135.819 266.409 137.935 266.514 140.136C266.802 144.564 254.454 147.828 254.736 150.858L244.56 140.304Z" fill="#263238"/>
<path d="M244.296 141.99C244.296 141.99 242.616 144.672 242.856 144.948C243.271 145.205 243.728 145.388 244.206 145.488L244.296 141.99Z" fill="#F28F8F"/>
<path d="M249.402 133.476C247.728 134.4 244.842 136.104 244.254 142.374C243.654 148.812 245.142 151.008 246.054 151.824C246.654 152.376 249.714 152.502 251.286 151.962C253.26 151.29 257.514 149.046 259.446 145.68C261.714 141.714 262.068 136.506 259.266 134.544C255.318 131.784 250.8 132.696 249.402 133.476Z" fill="#FFA8A7"/>
<path d="M249.396 134.238C248.418 136.594 247.811 139.088 247.596 141.63C246.825 141.638 246.058 141.514 245.328 141.264C245.328 141.264 245.298 138.564 246.024 137.028C245.327 138.265 244.879 139.627 244.704 141.036C243.927 140.973 243.184 140.694 242.556 140.232C241.956 137.346 243.756 131.394 248.886 130.446L249.396 134.238Z" fill="#263238"/>
<path d="M248.91 133.758C248.91 133.758 247.59 139.656 249.462 143.31C249.462 143.31 250.434 140.994 252.42 141.6C254.406 142.206 254.304 144.846 252.786 146.238C252.398 146.634 251.906 146.913 251.367 147.042C250.828 147.172 250.264 147.147 249.738 146.97C250.407 148.636 251.407 150.149 252.678 151.416C252.678 151.416 258.546 154.032 263.628 148.296C268.242 143.094 267.384 134.016 260.322 131.88C253.26 129.744 248.91 133.758 248.91 133.758Z" fill="#263238"/>
<path d="M268.446 147.048C269.838 148.524 269.574 151.032 267.846 152.652C266.118 154.272 263.61 154.392 262.218 152.922C260.826 151.452 261.09 148.932 262.818 147.312C264.546 145.692 267.048 145.572 268.446 147.048Z" fill="#263238"/>
<path d="M266.034 144.468C265.685 144.581 265.395 144.827 265.228 145.153C265.06 145.479 265.029 145.859 265.14 146.208L267.774 145.362C267.661 145.013 267.415 144.723 267.089 144.556C266.763 144.388 266.383 144.356 266.034 144.468Z" fill="#263238"/>
<path d="M228 172.356C226.854 171.054 226.668 168.156 225.144 166.188C223.62 164.22 223.896 162.204 222.942 163.092C221.988 163.98 222.702 167.238 222.702 167.238C222.702 167.238 220.932 170.526 220.776 172.206C220.62 173.886 225.084 178.116 225.084 178.116L228 172.356Z" fill="#FFA8A7"/>
<path d="M222.942 167.01C222.942 167.01 221.142 169.53 213.018 166.236C210.774 165.33 212.286 170.154 215.04 172.152C217.584 174 220.77 174.552 223.32 176.298C223.326 176.052 222.942 167.01 222.942 167.01Z" fill="#FFA8A7"/>
<path d="M248.61 157.938C246.294 158.742 244.272 159.678 242.112 163.734C239.334 168.954 234.312 179.166 234.312 179.166L228 172.356C228 172.356 227.082 171.066 225.378 173.88C223.674 176.694 224.43 177.48 224.43 177.48C224.43 177.48 231.75 187.278 233.088 188.526C234.426 189.774 236.64 188.802 238.08 186.846C239.52 184.89 246.966 171.396 246.966 171.396C246.966 171.396 251.88 162.87 248.61 157.938Z" fill="#FFA8A7"/>
<path opacity="0.2" d="M257.118 212.04L257.556 207.36C260.069 206.984 262.471 206.071 264.6 204.684C264.6 204.684 263.094 207.084 258.966 208.194L258.03 212.754L257.79 221.844L257.118 212.04Z" fill="black"/>
<path d="M243.87 176.784C243.87 176.784 246.78 171.69 246.966 171.384L243.636 184.302L243.87 176.784Z" fill="#263238"/>
<path d="M209.34 146.226C210.192 147.12 212.214 147.81 225.306 148.764C227.212 148.95 229.135 148.697 230.928 148.026C232.695 147.33 234.212 146.119 235.284 144.552C235.537 144.207 235.724 143.819 235.836 143.406C235.938 142.999 235.876 142.568 235.662 142.206C235.405 141.865 235.035 141.627 234.618 141.534C233.793 141.347 232.93 141.44 232.164 141.798C230.964 142.266 230.028 142.428 230.118 142.182C230.208 141.936 230.94 141.714 231.69 140.868C232.44 140.022 232.632 138.834 232.146 138.468C231.66 138.102 231.744 138.18 230.88 138.9C230.016 139.62 229.02 139.986 227.88 141.09C227.159 141.911 226.249 142.543 225.228 142.932C223.914 143.454 222.672 143.298 219.024 142.716C215.874 142.212 214.662 142.032 213.15 141.192C211.524 138.72 207.6 128.274 205.896 125.412C204.096 122.382 200.436 122.292 200.436 122.292C200.469 126.023 201.092 129.725 202.284 133.26C203.544 136.8 208.494 145.344 209.34 146.226Z" fill="#B16668"/>
<path d="M199.446 121.95C200.953 121.7 202.501 121.973 203.832 122.724C205.818 123.972 207.114 126.282 208.368 129.174C209.904 132.69 211.752 137.394 211.752 137.394C209.967 139.13 207.634 140.191 205.152 140.394L199.242 130.572L199.446 121.95Z" fill="#455A64"/>
<path d="M185.472 234.618H190.572V225.888H185.472V234.618Z" fill="#B16668"/>
<path d="M199.584 228.084L204.684 228.258L204.936 219.024L199.584 218.844V228.084Z" fill="#B16668"/>
<path d="M183.3 160.698C183.3 165.57 184.164 193.896 184.164 193.896C184.044 195.294 182.694 197.784 182.592 202.836C182.436 210.156 185.256 230.25 185.256 230.25C186.136 230.683 187.101 230.917 188.081 230.937C189.062 230.957 190.035 230.761 190.932 230.364C190.932 230.364 193.248 203.118 194.16 195.876C194.958 189.552 196.308 172.374 196.308 172.374L198.708 193.014C198.117 195.673 197.902 198.402 198.072 201.12C198.312 204.474 199.272 225.222 199.272 225.222C200.161 225.725 201.149 226.026 202.168 226.104C203.186 226.182 204.209 226.034 205.164 225.672C205.164 225.672 208.764 196.092 208.818 193.014C208.884 189.51 207.486 153.726 207.486 153.726L183.3 160.698Z" fill="#37474F"/>
<path d="M186.654 124.872C185.532 125.371 184.65 126.288 184.194 127.428C183.672 128.838 183.419 130.334 183.45 131.838V141.828L183.3 160.698C190.62 164.556 199.926 164.814 207.738 159.108C207.738 159.108 207.3 134.826 207.3 130.854C207.3 130.674 207.3 130.494 207.3 130.308C207.012 124.632 201.426 120.708 195.9 122.154L191.28 123.354L186.642 124.884L186.654 124.872Z" fill="#F0F0F0"/>
<path d="M204.706 111.246C207.442 108.509 207.442 104.072 204.706 101.335C201.969 98.5986 197.532 98.5986 194.795 101.335C192.058 104.072 192.058 108.509 194.795 111.246C197.532 113.983 201.969 113.983 204.706 111.246Z" fill="#263238"/>
<path d="M187.632 111.27C187.632 111.27 188.766 116.604 189.222 117.486C189.526 118.027 190.027 118.429 190.62 118.608L190.542 114.858L187.632 111.27Z" fill="#263238"/>
<path d="M189.054 103.626C188.657 103.58 188.255 103.625 187.879 103.758C187.502 103.891 187.161 104.109 186.882 104.394C185.946 105.348 186.468 108.342 187.632 111.27L189.768 111.516L189.054 103.626Z" fill="#263238"/>
<path d="M190.41 111.516C189.984 111.774 189.372 110.952 188.844 110.394C188.316 109.836 186.588 109.086 185.724 110.904C184.86 112.722 186.486 115.194 187.842 115.62C190.188 116.358 190.542 114.858 190.542 114.858L190.71 123.564C193.626 127.302 201.708 126.984 198.342 123.084V120.51C199.385 120.678 200.443 120.732 201.498 120.672C203.22 120.408 204.306 119.046 204.828 117.18C205.668 114.18 205.986 111.78 205.278 105.876C204.492 99.4201 196.986 99.3481 192.93 101.904C188.874 104.46 190.41 111.516 190.41 111.516Z" fill="#B16668"/>
<path d="M190.41 112.242C190.194 112.242 189.378 110.88 188.844 110.394C188.1 109.722 189.054 103.626 189.054 103.626C188.86 103.098 188.825 102.525 188.952 101.978C189.078 101.43 189.362 100.931 189.768 100.542C190.782 99.426 191.886 98.742 194.808 98.568C196.812 98.5586 198.814 98.6528 200.808 98.85C203.694 99.042 204.756 98.334 206.418 97.866C207.684 97.512 207.828 102.066 204.618 103.608C204.618 103.608 203.574 104.28 200.832 104.616C198.297 104.803 195.75 104.755 193.224 104.472C192.432 104.364 192.264 105.132 191.832 107.238C191.448 109.092 191.136 112.2 190.41 112.242Z" fill="#263238"/>
<path d="M189.06 104.1L186.468 102.708C186.551 102.533 186.668 102.378 186.813 102.25C186.958 102.122 187.127 102.025 187.31 101.964C187.494 101.904 187.688 101.881 187.88 101.897C188.072 101.914 188.26 101.969 188.43 102.06C188.777 102.254 189.036 102.574 189.153 102.954C189.27 103.334 189.237 103.744 189.06 104.1Z" fill="#263238"/>
<path d="M198.336 120.51C198.336 120.51 194.49 119.736 193.146 119.022C192.354 118.61 191.706 117.968 191.286 117.18C191.488 117.968 191.848 118.707 192.342 119.352C193.326 120.606 198.342 121.536 198.342 121.536L198.336 120.51Z" fill="#9A4A4D"/>
<path d="M198.144 110.556C198.137 110.706 198.086 110.851 197.997 110.972C197.909 111.094 197.787 111.187 197.646 111.239C197.505 111.292 197.352 111.302 197.205 111.269C197.059 111.235 196.925 111.159 196.821 111.05C196.718 110.942 196.648 110.805 196.621 110.657C196.594 110.509 196.611 110.357 196.671 110.218C196.73 110.08 196.828 109.962 196.953 109.879C197.079 109.796 197.226 109.752 197.376 109.752C197.479 109.753 197.582 109.776 197.676 109.817C197.771 109.858 197.857 109.918 197.928 109.993C198 110.068 198.056 110.156 198.093 110.253C198.13 110.349 198.147 110.453 198.144 110.556Z" fill="#263238"/>
<path d="M197.328 107.646L195.678 108.558C195.562 108.331 195.537 108.069 195.608 107.825C195.68 107.58 195.842 107.373 196.062 107.244C196.171 107.184 196.291 107.147 196.414 107.135C196.538 107.123 196.663 107.137 196.781 107.174C196.899 107.212 197.009 107.273 197.103 107.354C197.197 107.435 197.273 107.535 197.328 107.646Z" fill="#263238"/>
<path d="M198 115.878L199.758 116.544C199.722 116.664 199.661 116.776 199.58 116.872C199.499 116.968 199.399 117.046 199.287 117.102C199.175 117.158 199.052 117.191 198.927 117.198C198.801 117.206 198.676 117.187 198.558 117.144C198.318 117.048 198.125 116.861 198.021 116.625C197.917 116.388 197.909 116.12 198 115.878Z" fill="#9A4A4D"/>
<path d="M204.798 108.288L203.292 107.13C203.362 107.028 203.453 106.941 203.558 106.875C203.663 106.81 203.78 106.766 203.903 106.748C204.026 106.729 204.151 106.736 204.271 106.768C204.391 106.799 204.503 106.855 204.6 106.932C204.8 107.09 204.932 107.318 204.969 107.571C205.006 107.823 204.945 108.08 204.798 108.288Z" fill="#263238"/>
<path d="M204.336 110.334C204.345 110.441 204.333 110.549 204.298 110.651C204.264 110.752 204.208 110.846 204.136 110.925C204.063 111.004 203.975 111.067 203.877 111.111C203.779 111.154 203.672 111.176 203.565 111.176C203.458 111.176 203.351 111.154 203.253 111.111C203.155 111.067 203.067 111.004 202.994 110.925C202.922 110.846 202.866 110.752 202.832 110.651C202.797 110.549 202.785 110.441 202.794 110.334C202.791 110.231 202.808 110.128 202.845 110.032C202.882 109.936 202.938 109.848 203.01 109.773C203.081 109.699 203.167 109.64 203.262 109.599C203.357 109.558 203.459 109.537 203.562 109.536C203.665 109.538 203.767 109.56 203.862 109.601C203.957 109.641 204.042 109.701 204.114 109.775C204.186 109.849 204.243 109.936 204.281 110.032C204.319 110.128 204.338 110.231 204.336 110.334Z" fill="#263238"/>
<path d="M200.406 109.608L200.658 114.24L203.082 113.418L200.406 109.608Z" fill="#9A4A4D"/>
<path d="M190.572 232.098V231.372C191.058 231.582 192.192 235.908 194.22 237.756C195.828 239.22 198.024 240.918 198.582 242.556C199.14 244.194 195.522 245.196 194.022 244.956C192.276 244.644 189.222 243.414 188.49 242.274C187.758 241.134 187.374 239.454 186.756 238.62C186.138 237.786 184.716 236.85 184.356 235.884C184.176 235.356 184.392 234.192 184.65 233.208C184.908 232.224 185.142 231.318 185.448 231.408V231.96C186.173 232.533 187.074 232.839 187.998 232.824C188.766 232.8 190.578 232.668 190.572 232.098Z" fill="#263238"/>
<path d="M204.738 226.686C205.002 226.686 205.218 227.07 205.8 227.7C206.672 228.583 207.686 229.313 208.8 229.86C210.708 230.814 214.422 232.26 216.102 233.046C217.152 233.52 217.104 234.786 216.018 235.506C214.932 236.226 212.316 236.748 209.166 236.046C207.456 235.662 205.224 234.078 203.814 234.162C202.404 234.246 199.758 234.228 198.714 233.508C197.67 232.788 198.114 231.258 198.384 229.938C198.708 228.504 199.11 226.26 199.584 226.338V226.836C200.184 227.76 203.364 228.138 204.708 227.436L204.738 226.686Z" fill="#263238"/>
<path d="M196.308 172.374C198.942 171.552 201.363 170.161 203.4 168.3C203.4 168.3 202.032 170.868 197.952 173.256L198.498 191.256L196.308 172.374Z" fill="#263238"/>
<path d="M174.996 150.222C178.266 131.082 181.596 125.262 187.098 125.064C188.79 126.894 188.634 132.69 186.282 136.314C186.282 136.314 181.242 148.476 180.552 152.748C179.952 156.498 179.286 161.208 179.496 164.4C179.543 164.963 179.792 165.489 180.198 165.882C181.284 166.95 181.332 167.844 182.058 169.044C182.628 169.986 183.216 170.316 183.066 170.544C182.863 170.784 182.576 170.939 182.264 170.978C181.952 171.017 181.636 170.937 181.38 170.754C180.881 170.43 180.43 170.036 180.042 169.584C180.281 170.759 180.685 171.894 181.242 172.956C182.526 175.5 182.316 176.844 178.746 176.094C176.514 175.62 175.038 173.85 174.444 168.57C174.19 166.627 174.074 164.668 174.096 162.708C174.3 157.656 174.48 153.234 174.996 150.222Z" fill="#B16668"/>
<path d="M188.436 124.284C186.768 124.59 182.49 124.74 180.294 129.162C178.854 132.072 177.402 136.632 175.848 142.092C175.848 142.092 179.058 145.416 183.792 144.942L186.444 137.298C188.958 134.046 189.6 126.732 188.436 124.284Z" fill="#455A64"/>
<path d="M158.064 123C153.402 104.226 148.074 99.8699 153.054 97.3379C158.172 96.8399 160.812 99.8639 161.7 105.252C162.138 107.892 163.086 118.716 164.274 122.958C165.324 126.684 166.728 131.328 168.288 134.178C168.569 134.682 169.026 135.064 169.572 135.252C171.03 135.774 171.462 136.584 172.644 137.382C173.574 137.982 174.258 138.06 174.216 138.33C174.134 138.64 173.937 138.907 173.665 139.078C173.393 139.248 173.067 139.309 172.752 139.248C172.152 139.16 171.566 138.991 171.012 138.744C171.729 139.727 172.582 140.603 173.544 141.348C175.824 143.148 176.202 144.492 172.584 145.32C170.316 145.836 168.198 144.834 165.384 140.208C164.315 138.52 163.369 136.757 162.552 134.934C160.596 130.2 158.814 126.048 158.064 123Z" fill="#FFA8A7"/>
<path d="M141.978 206.73V206.004C142.266 206.856 143.598 210.534 145.62 212.376C147.228 213.846 149.418 215.538 149.976 217.176C150.534 218.814 146.928 219.444 145.422 219.18C143.682 218.874 141.426 217.884 140.196 216.372C139.332 215.31 138.78 214.056 138.162 213.222C137.544 212.388 136.128 211.452 135.762 210.486C135.582 209.958 135.798 208.794 136.056 207.816C136.314 206.838 136.548 205.92 136.854 206.016V206.568C137.581 207.137 138.481 207.442 139.404 207.432C140.178 207.444 141.984 207.3 141.978 206.73Z" fill="#263238"/>
<path d="M147.072 213.666C146.574 213.222 146.076 212.79 145.62 212.37C144.21 211.086 143.13 208.902 142.512 207.408C142.159 206.56 141.978 205.65 141.978 204.732V201.828H136.884V206.55V206.676C137.13 207.732 139.47 210.546 140.796 212.382C141.684 213.612 143.376 215.178 145.398 215.448C147.342 215.724 148.32 215.118 147.072 213.666Z" fill="#FFA8A7"/>
<path d="M161.85 201.708V201C162.132 201.852 163.47 205.53 165.486 207.372C167.094 208.842 169.29 210.534 169.842 212.172C170.394 213.81 166.794 214.44 165.294 214.176C163.548 213.87 161.292 212.88 160.062 211.368C159.198 210.306 158.652 209.052 158.034 208.218C157.416 207.384 155.994 206.448 155.664 205.482C155.478 204.954 155.694 203.79 155.952 202.812C156.21 201.834 156.444 200.922 156.756 201.012V201.564C157.481 202.133 158.378 202.438 159.3 202.428C160.044 202.422 161.856 202.278 161.85 201.708Z" fill="#263238"/>
<path d="M166.944 208.644C166.446 208.2 165.942 207.768 165.486 207.354C164.076 206.064 163.002 203.88 162.384 202.386C162.031 201.538 161.849 200.628 161.85 199.71V196.8H156.756V201.522V201.648C157.002 202.704 159.336 205.518 160.668 207.354C161.556 208.584 163.248 210.15 165.27 210.42C167.208 210.702 168.186 210.096 166.944 208.644Z" fill="#FFA8A7"/>
<path d="M137.898 127.566C133.95 136.188 138.042 166.566 138.042 166.566C137.922 167.964 136.32 170.724 135.726 176.88C135.018 184.158 136.83 202.44 136.83 202.44C137.607 202.89 138.482 203.145 139.379 203.18C140.276 203.216 141.168 203.032 141.978 202.644C141.978 202.644 146.832 175.116 147.744 167.88C148.542 161.562 150.072 147.672 150.072 147.672L154.416 167.844C153.781 169.879 153.321 171.965 153.042 174.078C152.628 178.332 156.756 198.156 156.756 198.156C156.756 198.156 158.514 198.798 161.85 198.306C161.85 198.306 163.308 172.008 163.692 166.878C164.334 158.268 162.048 131.394 160.47 126.294L137.898 127.566Z" fill="#00F4D7"/>
<path opacity="0.1" d="M150.072 147.678L151.356 139.668C151.356 139.668 156.756 138.546 159.24 136.23C159.24 136.23 156.66 139.446 152.826 140.496L151.386 146.664L153.9 165.336L150.072 147.678Z" fill="black"/>
<path d="M144.864 97.5959C139.8 97.9439 139.464 100.392 138.18 103.068C137.25 105.127 137.164 107.468 137.94 109.59L141.468 119.79C140.03 122.269 138.835 124.881 137.898 127.59C146.754 132.528 157.806 129.93 160.47 126.324C160.584 125.562 159.9 119.58 159.474 115.674C161.034 111.762 161.448 109.284 160.788 106.674C159.588 101.874 154.83 97.1999 152.73 97.3679L144.864 97.5959Z" fill="#F5F5F5"/>
<path d="M150.882 92.946H147.15C145.913 92.9515 144.687 92.7133 143.543 92.2449C142.398 91.7765 141.357 91.0872 140.479 90.2163C139.601 89.3454 138.903 88.31 138.425 87.1692C137.947 86.0285 137.699 84.8048 137.694 83.568C137.681 80.5758 138.857 77.701 140.963 75.5756C143.07 73.4502 145.934 72.2483 148.926 72.234C150.408 72.2277 151.877 72.5133 153.249 73.0747C154.62 73.636 155.868 74.4621 156.92 75.5056C157.973 76.5492 158.81 77.7898 159.383 79.1567C159.956 80.5235 160.254 81.9899 160.26 83.472C160.268 84.7103 160.031 85.9379 159.564 87.0847C159.097 88.2314 158.408 89.2747 157.537 90.1548C156.666 91.0348 155.629 91.7344 154.487 92.2133C153.345 92.6923 152.12 92.9413 150.882 92.946Z" fill="#263238"/>
<path d="M146.004 69.5999C147.618 71.9999 145.908 73.5959 143.532 75.2099C141.156 76.8239 139.026 77.8079 137.412 75.4379C135.798 73.0679 136.686 70.4159 139.062 68.8379C141.438 67.2599 144.396 67.2299 146.004 69.5999Z" fill="#263238"/>
<path d="M140.196 76.9438L137.796 78.7078C137.673 78.5565 137.582 78.382 137.529 78.1947C137.475 78.0074 137.46 77.8112 137.484 77.6178C137.508 77.4245 137.571 77.238 137.669 77.0696C137.767 76.9012 137.898 76.7543 138.054 76.6378C138.38 76.399 138.787 76.2972 139.187 76.3544C139.588 76.4116 139.95 76.6232 140.196 76.9438Z" fill="#263238"/>
<path d="M155.904 77.2798C157.104 77.9758 158.586 80.9698 158.466 87.2578C158.364 92.5858 156.666 93.9058 155.778 94.2898C154.89 94.6738 153.24 94.4518 151.614 94.1878L151.71 97.4218C151.71 97.4218 154.446 99.6658 154.314 101.13C154.182 102.594 150.516 103.272 148.404 101.85C147.028 100.893 145.753 99.7968 144.6 98.5798C144.545 98.5188 144.515 98.4396 144.516 98.3578V90.2938C144.516 90.2938 143.562 91.2298 141.936 89.8138C140.592 88.6498 140.136 86.6758 141.168 85.6138C141.437 85.3601 141.763 85.1741 142.118 85.0714C142.474 84.9687 142.848 84.9521 143.211 85.0231C143.574 85.094 143.915 85.2505 144.206 85.4795C144.496 85.7085 144.728 86.0034 144.882 86.3398C144.882 86.3398 147.48 86.4238 150.924 84.5098C152.264 83.7814 153.414 82.747 154.279 81.4907C155.144 80.2344 155.701 78.7917 155.904 77.2798Z" fill="#FFA8A7"/>
<path d="M152.514 85.9439C152.516 86.0758 152.479 86.2053 152.409 86.3165C152.338 86.4276 152.236 86.5154 152.115 86.569C151.995 86.6226 151.861 86.6395 151.731 86.6177C151.601 86.596 151.48 86.5364 151.384 86.4465C151.287 86.3566 151.22 86.2403 151.189 86.1122C151.158 85.984 151.165 85.8495 151.21 85.7256C151.255 85.6017 151.336 85.4937 151.442 85.4152C151.548 85.3367 151.674 85.291 151.806 85.2839C151.987 85.2791 152.163 85.3455 152.295 85.469C152.428 85.5925 152.506 85.763 152.514 85.9439Z" fill="#263238"/>
<path d="M152.712 90.4558L154.272 90.9478C154.244 91.0522 154.195 91.1498 154.128 91.235C154.061 91.3202 153.978 91.3911 153.884 91.4437C153.789 91.4963 153.685 91.5294 153.578 91.5411C153.47 91.5528 153.362 91.5428 153.258 91.5118C153.049 91.4391 152.876 91.2891 152.774 91.0926C152.673 90.8962 152.651 90.6683 152.712 90.4558Z" fill="#F28F8F"/>
<path d="M157.998 83.862L156.636 82.932C156.692 82.8397 156.766 82.7598 156.854 82.6972C156.943 82.6347 157.042 82.5908 157.148 82.5684C157.254 82.5459 157.363 82.5453 157.469 82.5665C157.575 82.5878 157.675 82.6305 157.764 82.692C157.945 82.8204 158.07 83.0131 158.113 83.2305C158.157 83.448 158.115 83.6739 157.998 83.862Z" fill="#263238"/>
<path d="M157.692 85.4399C157.693 85.5715 157.655 85.7005 157.584 85.8109C157.512 85.9212 157.41 86.0081 157.289 86.0608C157.168 86.1135 157.035 86.1296 156.905 86.1071C156.776 86.0846 156.655 86.0246 156.56 85.9344C156.464 85.8443 156.396 85.728 156.366 85.5999C156.336 85.4719 156.344 85.3377 156.389 85.2142C156.434 85.0906 156.515 84.983 156.62 84.9047C156.726 84.8265 156.853 84.781 156.984 84.7739C157.166 84.7691 157.343 84.8364 157.475 84.9611C157.608 85.0859 157.686 85.258 157.692 85.4399Z" fill="#263238"/>
<path d="M154.674 84.7319L154.656 89.0999L156.774 88.4339L154.674 84.7319Z" fill="#F28F8F"/>
<path d="M151.614 94.1998C149.898 93.9778 146.37 92.9998 145.818 91.5898C146.035 92.3041 146.469 92.9331 147.06 93.3898C148.116 94.2838 151.644 95.2978 151.644 95.2978L151.614 94.1998Z" fill="#F28F8F"/>
<path d="M147.126 128.52C146.433 128.36 145.779 128.064 145.201 127.648C144.624 127.233 144.136 126.706 143.765 126.099C143.394 125.492 143.148 124.817 143.041 124.114C142.934 123.411 142.968 122.694 143.142 122.004C143.167 121.908 143.197 121.814 143.232 121.722C143.353 121.348 143.596 121.026 143.923 120.808C144.25 120.59 144.641 120.489 145.032 120.522C144.496 120.111 144.047 119.597 143.711 119.011C143.376 118.425 143.16 117.778 143.076 117.108L141.744 110.826C141.616 109.784 141.708 108.728 142.014 107.724L138.456 103.608L137.802 104.064C137.261 105.87 137.312 107.802 137.946 109.578L141.474 119.778C140.014 122.246 138.818 124.86 137.904 127.578C140.785 129.127 143.964 130.04 147.228 130.255C150.491 130.47 153.763 129.983 156.822 128.826C153.6 129.34 150.309 129.237 147.126 128.52Z" fill="#E0E0E0"/>
<path d="M145.2 143.58L132.324 136.2C132.324 136.2 126.06 144.804 130.326 147.234C134.592 149.664 138.822 152.142 143.07 154.596C147.882 152.736 145.2 143.58 145.2 143.58Z" fill="#37474F"/>
<path d="M143.07 144.804L132.996 138.978V139.536L143.07 145.422V144.804Z" fill="#00F4D7"/>
<path d="M145.2 143.58C144.372 146.28 141.882 153.93 143.076 154.62C144.27 155.31 147.96 152.934 147.876 151.5C147.666 147.462 145.2 143.58 145.2 143.58Z" fill="#455A64"/>
<path d="M141.642 97.5718C142.169 97.5195 142.699 97.636 143.155 97.9046C143.611 98.1731 143.97 98.5798 144.18 99.0658C146.238 102.978 144.822 143.37 144.822 143.37L143.43 142.572C143.43 142.572 143.916 129.552 143.868 117.696C143.832 108.99 143.508 100.77 143.136 99.8758C142.958 99.3612 142.611 98.9222 142.151 98.6311C141.691 98.34 141.145 98.214 140.604 98.2738C140.715 98.0881 140.866 97.929 141.045 97.8077C141.224 97.6864 141.428 97.6059 141.642 97.5718Z" fill="#263238"/>
<path d="M128.838 123C132.774 106.908 135.828 100.002 140.136 98.3998C140.459 98.2746 140.805 98.2233 141.15 98.2496C141.495 98.2759 141.83 98.3792 142.13 98.5519C142.43 98.7245 142.687 98.9622 142.883 99.2474C143.079 99.5325 143.208 99.858 143.262 100.2C143.634 103.447 142.831 106.72 141 109.428C141 109.428 135.258 121.548 134.34 125.856C133.536 129.624 132.63 134.364 132.678 137.616C132.69 138.202 132.916 138.763 133.314 139.194C134.37 140.334 134.37 141.252 135.054 142.512C135.582 143.496 136.164 143.868 136.002 144.084C135.784 144.32 135.485 144.465 135.164 144.49C134.843 144.514 134.525 144.416 134.274 144.216C133.785 143.86 133.346 143.438 132.972 142.962C133.15 144.167 133.497 145.34 134.004 146.448C135.204 149.106 134.898 150.462 131.31 149.514C129.06 148.914 127.65 147.048 127.314 141.642C127.147 139.646 127.127 137.641 127.254 135.642C127.752 130.536 128.094 126.03 128.838 123Z" fill="#FFA8A7"/>
<path d="M126.204 100.2C126.564 96.6841 126.564 95.1961 126.456 94.7581C125.964 92.7601 124.572 91.1581 123.108 88.7581C120.6 84.6001 116.808 78.1081 115.062 75.6001C113.682 73.6321 112.194 72.4801 109.92 72.6001C108.336 72.6901 109.566 78.9601 111.12 83.4781L119.49 95.0281C119.766 95.4054 119.892 95.8713 119.844 96.3361L119.028 104.568L121.698 108.138C121.698 108.138 125.742 104.682 126.204 100.2Z" fill="#FFA8A7"/>
<path d="M126.252 99.6959C126.132 99.0959 125.712 98.5619 124.614 98.6039C123.516 98.6459 122.658 100.062 122.658 100.062L125.754 101.436C125.916 101.028 126.072 100.608 126.204 100.188C126.222 100.02 126.24 99.8579 126.252 99.6959Z" fill="#F28F8F"/>
<path d="M109.002 72.54C109.002 72.54 112.44 72.108 114.348 74.184C116.256 76.26 117.186 77.994 119.034 81.06C121.26 84.756 122.226 86.652 122.226 86.652C122.226 86.652 118.746 91.302 113.616 90.696L109.002 72.54Z" fill="#37474F"/>
<path d="M114.946 61.4352C117.722 58.6586 117.722 54.1568 114.946 51.3802C112.169 48.6036 107.667 48.6036 104.891 51.3802C102.114 54.1568 102.114 58.6586 104.891 61.4352C107.667 64.2119 112.169 64.2119 114.946 61.4352Z" fill="#263238"/>
<path d="M92.898 185.262H97.908V176.688H92.898V185.262Z" fill="#FFA8A7"/>
<path d="M110.262 179.262L115.266 179.436L115.518 170.364L110.514 170.196L110.262 179.262Z" fill="#FFA8A7"/>
<path d="M93.228 108.738C93.228 113.538 92.628 142.5 92.628 142.5C92.508 143.874 91.224 146.412 91.5 151.698C91.878 158.898 92.502 177.534 92.502 177.534C92.502 177.534 94.848 179.862 98.16 177.534C98.16 177.534 102.696 151.734 103.596 144.606C104.376 138.396 105.708 121.53 105.708 121.53L108.48 144.93C108.48 144.93 107.664 149.598 107.484 152.892C107.304 156.186 110.202 172.902 110.202 172.902C111.013 173.41 111.942 173.696 112.898 173.733C113.854 173.77 114.803 173.556 115.65 173.112C115.65 173.112 117.81 147.618 118.326 144.642C118.842 141.666 116.664 108.726 116.664 108.726L93.228 108.738Z" fill="#EBEBEB"/>
<path d="M98.04 74.148C96.974 74.3353 95.9874 74.8342 95.2047 75.5816C94.4219 76.3291 93.8782 77.2917 93.642 78.348C93.3652 79.597 93.2264 80.8726 93.228 82.152V108.732C96.738 112.554 108.978 114.336 116.628 108.732C116.628 108.732 116.478 85.254 115.908 81.396C114.906 74.694 111.708 72.306 108.48 72.552L100.746 73.662L98.04 74.148Z" fill="#00F4D7"/>
<path d="M97.632 61.458C97.632 61.458 98.784 66.858 99.246 67.764C99.5542 68.3117 100.061 68.7198 100.662 68.904L100.584 65.094L97.632 61.458Z" fill="#263238"/>
<path d="M99.078 53.7059C98.6749 53.66 98.2667 53.7064 97.8841 53.8415C97.5016 53.9767 97.1548 54.197 96.87 54.4859C95.922 55.4519 96.456 58.4879 97.632 61.4579L99.804 61.7099L99.078 53.7059Z" fill="#263238"/>
<path d="M100.452 61.7099C100.02 61.9739 99.402 61.1099 98.862 60.5759C98.322 60.0419 96.576 59.2439 95.7 61.0859C94.824 62.9279 96.474 65.4419 97.848 65.8859C100.248 66.6359 100.584 65.1059 100.584 65.1059L100.764 73.6799C101.29 74.8298 102.092 75.8316 103.099 76.5959C104.106 77.3602 105.287 77.8632 106.536 78.0599C110.736 78.6299 109.884 75.1559 108.498 73.4519V70.8479C109.557 71.0157 110.631 71.07 111.702 71.0099C113.448 70.7399 114.546 69.3599 115.08 67.4699C115.932 64.4279 116.28 61.9739 115.53 55.9979C114.738 49.4519 107.13 49.3979 103.008 51.9719C98.886 54.5459 100.452 61.7099 100.452 61.7099Z" fill="#FFA8A7"/>
<path d="M100.452 62.442C100.236 62.442 99.402 61.068 98.862 60.576C98.112 59.892 99.078 53.706 99.078 53.706C98.8816 53.1708 98.8456 52.5899 98.9746 52.0346C99.1036 51.4793 99.3918 50.9738 99.804 50.58C100.83 49.446 102.552 49.32 105.486 48.864C107.022 48.618 109.356 48.192 110.886 47.904C112.722 47.562 114.24 47.202 115.536 48.33C116.045 48.7692 116.404 49.3554 116.565 50.0078C116.727 50.6601 116.681 51.3464 116.436 51.972C116.305 52.2581 116.128 52.5214 115.914 52.752C115.564 53.168 115.108 53.4811 114.594 53.658C114.594 53.658 113.796 54.372 110.994 54.708C108.423 54.9012 105.84 54.853 103.278 54.564C102.474 54.456 102.3 55.236 101.868 57.372C101.508 59.25 101.19 62.43 100.452 62.442Z" fill="#263238"/>
<path d="M99.084 54.186L96.456 52.8C96.5388 52.6224 96.657 52.4637 96.8033 52.3334C96.9496 52.2031 97.1209 52.104 97.3069 52.0422C97.4928 51.9805 97.6893 51.9573 97.8845 51.9741C98.0797 51.9909 98.2694 52.0473 98.442 52.14C98.7892 52.3354 99.0489 52.6557 99.1681 53.0358C99.2874 53.416 99.2573 53.8272 99.084 54.186Z" fill="#263238"/>
<path d="M108.492 70.836C108.492 70.836 104.592 70.05 103.224 69.324C102.423 68.9054 101.766 68.2551 101.34 67.458C101.548 68.2563 101.913 69.0049 102.414 69.66C103.41 70.932 108.492 71.874 108.492 71.874V70.836Z" fill="#F28F8F"/>
<path d="M107.556 60.738C107.566 60.8466 107.552 60.9559 107.517 61.0592C107.482 61.1624 107.426 61.2572 107.353 61.3376C107.279 61.4179 107.189 61.4821 107.09 61.526C106.99 61.5699 106.882 61.5926 106.773 61.5926C106.664 61.5926 106.556 61.5699 106.456 61.526C106.357 61.4821 106.267 61.4179 106.193 61.3376C106.12 61.2572 106.064 61.1624 106.029 61.0592C105.994 60.9559 105.98 60.8466 105.99 60.738C105.988 60.6335 106.006 60.5295 106.044 60.4321C106.082 60.3347 106.139 60.2458 106.211 60.1705C106.284 60.0952 106.371 60.035 106.466 59.9934C106.562 59.9518 106.665 59.9295 106.77 59.928C106.981 59.9327 107.182 60.0203 107.329 60.1719C107.476 60.3234 107.558 60.5268 107.556 60.738Z" fill="#263238"/>
<path d="M106.722 57.786L105.054 58.71C104.933 58.4809 104.906 58.2136 104.979 57.9649C105.052 57.7162 105.219 57.5057 105.444 57.378C105.554 57.3175 105.675 57.28 105.8 57.2678C105.925 57.2556 106.051 57.269 106.171 57.3072C106.29 57.3454 106.401 57.4075 106.496 57.4899C106.59 57.5722 106.667 57.673 106.722 57.786Z" fill="#263238"/>
<path d="M108.138 66.1379L109.938 66.8039C109.901 66.9236 109.84 67.0345 109.759 67.13C109.678 67.2255 109.578 67.3036 109.466 67.3596C109.354 67.4157 109.232 67.4485 109.106 67.4561C108.981 67.4637 108.856 67.446 108.738 67.4039C108.491 67.3144 108.29 67.1313 108.178 66.8943C108.065 66.6572 108.051 66.3855 108.138 66.1379Z" fill="#F28F8F"/>
<path d="M114.528 58.4339L112.998 57.2339C113.07 57.1311 113.162 57.0441 113.269 56.9781C113.375 56.9121 113.494 56.8685 113.618 56.85C113.743 56.8315 113.869 56.8384 113.99 56.8703C114.112 56.9023 114.225 56.9586 114.324 57.0359C114.533 57.1966 114.671 57.4325 114.71 57.6935C114.748 57.9545 114.683 58.2201 114.528 58.4339Z" fill="#263238"/>
<path d="M114.054 60.516C114.047 60.6685 113.995 60.8156 113.905 60.9391C113.816 61.0625 113.691 61.1569 113.548 61.2104C113.405 61.264 113.25 61.2744 113.101 61.2403C112.952 61.2063 112.816 61.1293 112.711 61.0189C112.605 60.9085 112.535 60.7696 112.507 60.6194C112.48 60.4691 112.497 60.3142 112.557 60.1737C112.617 60.0333 112.717 59.9135 112.845 59.8293C112.972 59.7451 113.121 59.7001 113.274 59.7C113.379 59.7023 113.482 59.7253 113.578 59.7675C113.674 59.8098 113.761 59.8706 113.833 59.9464C113.905 60.0221 113.962 60.1114 114 60.2092C114.038 60.3069 114.056 60.4112 114.054 60.516Z" fill="#263238"/>
<path d="M110.07 59.772L110.328 64.476L112.782 63.636L110.07 59.772Z" fill="#F28F8F"/>
<path d="M97.908 182.79V182.076C98.388 182.286 99.498 186.528 101.508 188.34C103.092 189.78 105.246 191.448 105.792 193.05C106.338 194.652 102.792 195.648 101.316 195.384C99.6 195.078 96.63 193.872 95.916 192.756C95.202 191.64 94.818 189.984 94.212 189.156C93.606 188.328 92.208 187.422 91.878 186.474C91.698 185.952 91.914 184.812 92.166 183.846C92.418 182.88 92.652 181.986 92.952 182.046V182.592C93.666 183.15 94.5482 183.448 95.454 183.438C96.138 183.492 97.914 183.348 97.908 182.79Z" fill="#263238"/>
<path d="M115.32 177.894C115.578 177.894 115.788 178.266 116.364 178.89C117.22 179.757 118.216 180.473 119.31 181.008C121.182 181.95 124.83 183.408 126.51 184.134C127.542 184.596 127.488 185.844 126.426 186.534C125.364 187.224 122.79 187.734 119.7 187.062C118.014 186.684 115.824 185.13 114.438 185.214C113.052 185.298 110.46 185.28 109.434 184.572C108.408 183.864 108.834 182.364 109.11 181.068C109.428 179.658 109.878 177.468 110.346 177.588V178.038C110.946 178.944 114.012 179.316 115.332 178.638L115.32 177.894Z" fill="#263238"/>
<path d="M105.69 121.53C108.278 120.723 110.658 119.359 112.662 117.534C112.662 117.534 111.312 120.054 107.316 122.394L108.462 144.942L105.69 121.53Z" fill="#E0E0E0"/>
<path d="M85.476 116.268C85.6363 118.54 85.9369 120.801 86.376 123.036C87.876 128.82 89.796 130.554 92.376 130.722C96.462 130.998 96.486 129.468 94.656 126.834C93.8575 125.685 93.2497 124.415 92.856 123.072C93.4558 123.573 94.1147 123.998 94.818 124.338C95.1316 124.501 95.4949 124.54 95.836 124.448C96.1772 124.356 96.4712 124.139 96.66 123.84C96.792 123.564 96.06 123.288 95.298 122.334C94.302 121.134 93.792 120.144 92.412 119.13C91.9526 118.678 91.6606 118.084 91.584 117.444C91.38 116.622 91.236 103.506 91.98 100.794L95.49 88.194C98.352 86.232 101.394 76.524 97.05 74.46C92.97 74.922 89.994 80.256 85.548 96.7319C84.72 99.6299 85.014 111.78 85.476 116.268Z" fill="#FFA8A7"/>
<path d="M97.908 74.202C98.467 74.6984 98.9136 75.3085 99.2178 75.9914C99.522 76.6744 99.6769 77.4144 99.672 78.162C99.786 80.91 98.472 84.87 97.722 87.348C96.972 89.826 95.322 94.308 95.322 94.308C95.322 94.308 88.608 93.54 87.078 89.598C87.078 89.598 90.228 79.398 93.252 76.11C93.8292 75.4555 94.5495 74.9428 95.357 74.6119C96.1645 74.281 97.0375 74.1407 97.908 74.202Z" fill="#37474F"/>
<path d="M125.4 95.8741L124.866 95.4181C124.786 95.3653 124.695 95.3324 124.6 95.322C124.505 95.3115 124.409 95.3239 124.32 95.3581L118.584 96.9181C118.295 97.0131 118.03 97.1696 117.807 97.3767C117.585 97.5839 117.41 97.8368 117.294 98.1181L113.16 110.034C113.112 110.13 113.093 110.239 113.107 110.346C113.121 110.453 113.167 110.553 113.238 110.634L113.784 111.108V110.712H113.826L119.568 109.152C119.857 109.057 120.122 108.901 120.345 108.693C120.567 108.486 120.742 108.233 120.858 107.952C121.668 105.606 124.176 98.3521 124.992 96.0301C125.014 95.962 125.028 95.8915 125.034 95.8201L125.4 95.8741Z" fill="#455A64"/>
<path d="M113.67 110.508L117.798 98.5859C117.914 98.305 118.09 98.0525 118.312 97.8454C118.535 97.6383 118.799 97.4816 119.088 97.3859L124.83 95.8259C125.364 95.6819 125.646 95.9879 125.466 96.5039C124.656 98.8499 122.148 106.104 121.338 108.426C121.221 108.706 121.045 108.958 120.822 109.165C120.6 109.372 120.336 109.529 120.048 109.626L114.306 111.186C113.772 111.33 113.49 111 113.67 110.508Z" fill="#263238"/>
<path d="M123.786 101.304C123.384 102.504 121.938 103.326 119.586 103.89C117.234 104.454 115.902 106.968 116.286 107.736C116.67 108.504 120.486 109.212 122.028 108.996C123.57 108.78 125.106 106.56 125.568 105.876C126.03 105.192 126.576 100.398 126.084 99.7439C125.887 99.5427 125.647 99.3882 125.382 99.2916C125.117 99.1951 124.834 99.159 124.554 99.1859L123.786 101.304Z" fill="#FFA8A7"/>
<path d="M79.758 84L65.004 75.564C65.004 75.564 57.804 85.434 62.712 88.224C67.62 91.014 72.456 93.846 77.322 96.66C82.842 94.494 79.758 84 79.758 84Z" fill="#00F4D7"/>
<path opacity="0.2" d="M79.758 84L65.004 75.564C65.004 75.564 57.804 85.434 62.712 88.224C67.62 91.014 72.456 93.846 77.322 96.66C82.842 94.494 79.758 84 79.758 84Z" fill="black"/>
<path d="M77.322 85.4041L67.584 79.7761V80.4181L77.322 86.1061V85.4041Z" fill="#263238"/>
<path d="M79.758 84C78.81 87.102 75.954 95.868 77.322 96.66C78.69 97.452 82.926 94.728 82.842 93.06C82.596 88.446 79.758 84 79.758 84Z" fill="#00F4D7"/>
<path d="M58.008 20.7781H59.91C62.7425 20.7781 65.459 21.9033 67.4619 23.9062C69.4648 25.9091 70.59 28.6256 70.59 31.4581V54.1501H47.328V31.4581C47.328 28.6256 48.4532 25.9091 50.4561 23.9062C52.459 21.9033 55.1755 20.7781 58.008 20.7781Z" fill="#263238"/>
<path d="M79.902 72.6661C81.294 71.3701 80.724 69.8581 78.792 65.7121C76.86 61.5661 72.264 51.9781 71.112 49.9201C69.102 46.3201 66.744 46.1401 63.198 46.1521C61.77 46.1521 65.388 50.2441 67.02 54.2101C68.49 57.8101 74.22 69.5401 74.22 69.5401L79.902 72.6661Z" fill="#B16668"/>
<path d="M57.24 165.6C56.73 165.144 56.214 164.694 55.746 164.268C54.294 162.948 53.19 160.704 52.554 159.174C52.193 158.301 52.0075 157.365 52.008 156.42V153.42H46.8V158.268V158.4H46.83C47.082 159.486 49.482 162.378 50.844 164.262C51.756 165.528 53.496 167.136 55.572 167.412C57.51 167.682 58.518 167.058 57.24 165.6Z" fill="#B16668"/>
<path d="M72.354 157.614C72.4995 157.528 72.6261 157.414 72.726 157.278C73.134 156.72 72.81 156.414 72.516 155.97C72.1558 155.347 71.8544 154.693 71.616 154.014C71.376 153.414 71.058 152.358 71.058 152.358C71.058 152.358 71.058 151.572 71.058 151.26V148.26H65.826V153.246C66.096 154.404 67.152 155.532 67.848 156.456C68.382 157.17 69.768 157.536 70.602 157.716C70.9704 157.809 71.3528 157.833 71.73 157.788C71.9477 157.773 72.1601 157.714 72.354 157.614Z" fill="#B16668"/>
<path d="M47.82 77.16C43.764 86.016 47.964 117.216 47.964 117.216C47.844 118.65 46.2 121.482 45.564 127.806C44.838 135.282 46.698 154.044 46.698 154.044C47.4953 154.507 48.3937 154.768 49.3149 154.805C50.2362 154.841 51.1525 154.652 51.984 154.254C51.984 154.254 57 126 57.93 118.56C58.746 112.074 60.33 97.818 60.33 97.818L63.45 118.554C62.7978 120.642 62.326 122.782 62.04 124.95C61.614 129.324 65.85 149.676 65.85 149.676C65.85 149.676 67.65 150.336 71.082 149.832C71.082 149.832 72.576 122.832 72.972 117.558C73.638 108.714 72.63 81.102 71.004 75.864L47.82 77.16Z" fill="#37474F"/>
<path d="M60.318 97.8001L61.632 89.5741C61.632 89.5741 67.206 88.4221 69.732 86.0461C69.732 86.0461 67.08 89.3401 63.132 90.4201L61.656 96.7561L62.976 115.536L60.318 97.8001Z" fill="#263238"/>
<path d="M52.02 157.476V156.72C52.524 156.936 53.694 161.394 55.776 163.29C57.432 164.796 59.688 166.542 60.258 168.222C60.828 169.902 57.12 170.934 55.572 170.664C53.772 170.346 50.664 169.08 49.884 167.91C49.104 166.74 48.738 165.006 48.084 164.148C47.43 163.29 45.99 162.348 45.642 161.34C45.456 160.794 45.678 159.594 45.942 158.586C46.206 157.578 46.452 156.636 46.77 156.726V157.326C47.5153 157.911 48.4383 158.225 49.386 158.214C50.166 158.214 52.026 158.058 52.02 157.476Z" fill="#263238"/>
<path d="M71.058 152.358C71.328 152.358 71.622 152.778 72.222 153.426C73.1199 154.332 74.1621 155.082 75.306 155.646C77.268 156.63 81.084 158.142 82.812 158.922C83.892 159.408 83.844 160.722 82.728 161.448C81.612 162.174 78.918 162.726 75.684 162.006C73.92 161.61 71.628 159.984 70.176 160.068C68.724 160.152 66.012 160.14 64.938 159.396C63.864 158.652 64.296 157.08 64.596 155.73C64.926 154.248 65.34 151.944 65.832 152.04V152.55C66.432 153.504 69.714 153.894 71.1 153.192L71.058 152.358Z" fill="#263238"/>
<path d="M54.972 46.3922C49.77 46.7522 49.41 49.2602 48.108 52.0082C47.118 54.0962 47.442 56.5922 48.198 58.7762L51.486 69.1862C51.486 69.1862 49.8 73.2902 47.82 77.1602C56.91 82.2362 68.262 79.5602 70.992 75.8642C71.112 75.0782 70.392 68.9402 69.972 64.9322C71.574 60.9122 72 58.3682 71.322 55.7102C70.068 50.7842 65.202 45.9842 63.048 46.1582L54.972 46.3922Z" fill="#00F4D7"/>
<path d="M46.764 25.5781L48.336 28.1101C48.175 28.2212 47.9931 28.2986 47.8015 28.3376C47.6098 28.3766 47.4122 28.3765 47.2205 28.3373C47.0289 28.2981 46.8471 28.2205 46.6862 28.1093C46.5253 27.9981 46.3885 27.8555 46.284 27.6901C46.078 27.3437 46.0129 26.9313 46.1023 26.5383C46.1916 26.1452 46.4285 25.8015 46.764 25.5781Z" fill="#263238"/>
<path d="M66.774 25.4822C67.974 26.2082 69.522 29.2982 69.372 35.7782C69.24 41.2682 67.464 42.6002 66.6 43.0202C65.736 43.4402 63.984 43.1702 62.304 42.8942V46.2002C62.304 46.2002 64.62 48.8882 64.476 50.4002C64.332 51.9122 61.134 52.2662 58.962 50.7902C57.5584 49.7802 56.3541 48.5189 55.41 47.0702V39.0902C55.41 39.0902 54.276 40.6022 52.41 39.3722C50.544 38.1422 50.49 35.1002 51.564 34.0082C52.638 32.9162 54.948 33.2642 55.38 34.8002C55.38 34.8002 58.05 34.9022 61.608 32.9462C62.9958 32.1965 64.187 31.1297 65.0847 29.8327C65.9824 28.5357 66.5612 27.0451 66.774 25.4822Z" fill="#B16668"/>
<path d="M62.622 34.398C62.6293 34.4904 62.6182 34.5834 62.5891 34.6714C62.56 34.7594 62.5137 34.8407 62.4528 34.9106C62.3918 34.9805 62.3176 35.0375 62.2343 35.0782C62.1511 35.119 62.0605 35.1427 61.968 35.148C61.7866 35.1433 61.6137 35.0702 61.4839 34.9435C61.354 34.8167 61.2768 34.6456 61.2677 34.4644C61.2586 34.2832 61.3183 34.1052 61.4348 33.9661C61.5513 33.8269 61.716 33.7369 61.896 33.714C61.9887 33.7108 62.0811 33.726 62.1679 33.7588C62.2547 33.7915 62.3341 33.8411 62.4016 33.9047C62.4691 33.9683 62.5234 34.0446 62.5612 34.1293C62.599 34.214 62.6197 34.3053 62.622 34.398Z" fill="#263238"/>
<path d="M63.42 39.0542L65.028 39.5642C65.0025 39.6743 64.9547 39.778 64.8873 39.8687C64.82 39.9595 64.7347 40.0354 64.6367 40.0917C64.5388 40.148 64.4302 40.1835 64.3179 40.196C64.2056 40.2084 64.0919 40.1976 63.984 40.1642C63.7623 40.0914 63.5784 39.9338 63.4727 39.7257C63.367 39.5177 63.348 39.2762 63.42 39.0542Z" fill="#9A4A4D"/>
<path d="M68.286 32.2802L66.888 31.3082C66.9469 31.2147 67.0241 31.1342 67.115 31.0714C67.2059 31.0087 67.3086 30.965 67.4169 30.9432C67.5252 30.9213 67.6367 30.9216 67.7449 30.9441C67.853 30.9667 67.9555 31.0109 68.046 31.0742C68.2339 31.2054 68.3638 31.4042 68.4085 31.6289C68.4532 31.8537 68.4093 32.087 68.286 32.2802Z" fill="#263238"/>
<path d="M67.962 33.9C67.9693 33.9924 67.9582 34.0853 67.9291 34.1734C67.9 34.2614 67.8537 34.3427 67.7928 34.4126C67.7318 34.4824 67.6576 34.5394 67.5743 34.5802C67.4911 34.621 67.4005 34.6447 67.308 34.65C67.1266 34.6452 66.9537 34.5722 66.8239 34.4454C66.694 34.3187 66.6168 34.1476 66.6077 33.9663C66.5986 33.7851 66.6583 33.6071 66.7748 33.468C66.8913 33.3289 67.056 33.2389 67.236 33.216C67.3287 33.2128 67.4211 33.228 67.5079 33.2607C67.5947 33.2934 67.6741 33.343 67.7416 33.4066C67.8091 33.4702 67.8633 33.5466 67.9012 33.6313C67.939 33.7159 67.9597 33.8073 67.962 33.9Z" fill="#263238"/>
<path d="M64.59 33.5042L64.698 37.6622L66.888 36.9842L64.59 33.5042Z" fill="#9A4A4D"/>
<path d="M62.274 42.8941C60.51 42.6601 56.874 41.6161 56.31 40.1821C56.5426 40.9065 56.9931 41.5413 57.6 42.0001C58.686 42.9301 62.292 43.9801 62.292 43.9801L62.274 42.8941Z" fill="#9A4A4D"/>
<path opacity="0.1" d="M57.294 78.144C54.822 77.544 52.308 74.85 53.442 72.21C53.7631 71.4663 54.3196 70.8486 55.026 70.452C55.2844 70.3038 55.5829 70.2408 55.8792 70.272C56.1754 70.3033 56.4542 70.4271 56.676 70.626C55.476 69.846 53.442 66.048 53.166 64.662L51.762 60C51.6303 58.9304 51.7243 57.8451 52.038 56.814L48.384 52.614L47.712 53.082C47.112 54.882 47.562 56.982 48.198 58.812L51.486 69.222C51.486 69.222 49.8 73.29 47.82 77.16C50.7773 78.7499 54.041 79.6877 57.3912 79.9102C60.7414 80.1327 64.1004 79.6348 67.242 78.45C63.9364 78.9764 60.561 78.8726 57.294 78.144Z" fill="black"/>
<path d="M39.54 71.2861C43.476 55.2001 46.296 49.5121 49.41 47.6341C50.5699 46.9651 51.887 46.6172 53.226 46.6261C53.6511 47.1615 53.908 47.8108 53.964 48.4921C54.3374 51.7334 53.5417 55.0014 51.72 57.7081C51.72 57.7081 45.978 69.8281 45.06 74.1361C44.256 77.9041 43.35 82.6441 43.398 85.8961C43.4102 86.4822 43.6364 87.0435 44.034 87.4741C45.09 88.6141 45.09 89.5322 45.774 90.7922C46.302 91.7762 46.884 92.1422 46.722 92.3642C46.5039 92.6009 46.2039 92.7456 45.8829 92.769C45.5619 92.7924 45.2441 92.6927 44.994 92.4901C44.503 92.138 44.0646 91.7178 43.692 91.2422C43.8698 92.447 44.2172 93.6207 44.724 94.7282C45.924 97.3862 45.618 98.7422 42.03 97.7942C39.78 97.1942 38.37 95.3281 38.034 89.9221C37.8668 87.9263 37.8467 85.9209 37.974 83.9221C38.454 78.8161 38.796 74.3101 39.54 71.2861Z" fill="#B16668"/>
<path d="M61.92 69.9961C63 70.3081 64.05 70.1701 65.52 70.7281C66.6242 71.1973 67.7938 71.4947 68.988 71.6101C70.284 71.7181 71.556 70.3501 74.874 68.4661C78.024 66.6661 81.906 70.3741 79.89 72.6661C79.1798 73.3493 78.3473 73.8928 77.436 74.2681C75.93 74.8681 74.436 75.1861 70.578 76.3561C69.9285 76.578 69.2984 76.8529 68.694 77.1781C67.9453 77.5168 67.1733 77.8015 66.384 78.0301C64.5823 78.622 62.6585 78.7397 60.798 78.3721C59.6465 78.1838 58.585 77.6331 57.768 76.8001C57.078 76.0201 56.454 74.5381 56.688 73.4941C56.7493 73.178 56.9165 72.8923 57.162 72.6841C57.762 72.2101 58.692 72.5101 59.37 72.6181C60.1597 72.7814 60.9636 72.8658 61.77 72.8701C63.066 72.8161 63.972 72.6001 63.792 72.4081C63.612 72.2161 62.856 72.3061 61.83 71.8081C60.804 71.3101 60.168 70.3261 60.462 69.7981C60.756 69.2701 60.84 69.6841 61.92 69.9961Z" fill="#B16668"/>
<path d="M73.884 69C73.884 69 75.648 68.706 76.794 70.71C77.94 72.714 78.54 83.31 78.54 83.31L77.34 82.608C77.34 82.608 76.932 74.13 75.912 71.712C75.649 71.0976 75.1974 70.5827 74.6225 70.2419C74.0476 69.901 73.3792 69.7519 72.714 69.816C72.8391 69.604 73.0083 69.4215 73.2102 69.2807C73.412 69.1399 73.6418 69.0441 73.884 69Z" fill="#263238"/>
<path d="M33.228 97.416H27.984V179.196C28.0063 179.426 28.0891 179.646 28.224 179.834C28.3589 180.021 28.5411 180.17 28.752 180.264C29.3261 180.557 29.9615 180.71 30.606 180.71C31.2505 180.71 31.8859 180.557 32.46 180.264C32.6709 180.17 32.8531 180.021 32.988 179.834C33.1229 179.646 33.2057 179.426 33.228 179.196V97.416Z" fill="#37474F"/>
<path d="M30.606 98.9281C32.0541 98.9281 33.228 98.2511 33.228 97.4161C33.228 96.581 32.0541 95.9041 30.606 95.9041C29.1579 95.9041 27.984 96.581 27.984 97.4161C27.984 98.2511 29.1579 98.9281 30.606 98.9281Z" fill="#455A64"/>
<path d="M32.184 107.526C50.814 125.202 73.35 137.832 99.168 146.202V141C73.368 132.6 50.814 120 32.184 102.33V107.526Z" fill="#00F4D7"/>
<path opacity="0.7" d="M32.184 107.526C50.814 125.202 73.35 137.832 99.168 146.202V141C73.368 132.6 50.814 120 32.184 102.33V107.526Z" fill="white"/>
<path d="M100.302 136.35H95.064V218.124C95.084 218.355 95.1659 218.577 95.301 218.766C95.4361 218.955 95.6195 219.104 95.832 219.198C96.4059 219.488 97.04 219.639 97.683 219.639C98.326 219.639 98.9601 219.488 99.534 219.198C99.7465 219.104 99.9299 218.955 100.065 218.766C100.2 218.577 100.282 218.355 100.302 218.124V136.35Z" fill="#37474F"/>
<path d="M95.832 137.4C96.4059 137.69 97.0399 137.841 97.683 137.841C98.326 137.841 98.9601 137.69 99.534 137.4C100.56 136.8 100.56 135.852 99.534 135.258C98.9601 134.968 98.326 134.817 97.683 134.817C97.0399 134.817 96.4059 134.968 95.832 135.258C94.8 135.87 94.8 136.8 95.832 137.4Z" fill="#455A64"/>
<path d="M98.9461 145.974C117.576 163.65 140.112 176.28 165.93 184.65V179.46C140.13 171.06 117.576 158.46 98.9461 140.784V145.974Z" fill="#00F4D7"/>
<path opacity="0.7" d="M98.9461 145.974C117.576 163.65 140.112 176.28 165.93 184.65V179.46C140.13 171.06 117.576 158.46 98.9461 140.784V145.974Z" fill="white"/>
<path d="M167.4 175.278H162.156V257.058C162.177 257.289 162.259 257.511 162.394 257.7C162.529 257.888 162.712 258.038 162.924 258.132C163.499 258.422 164.134 258.573 164.778 258.573C165.422 258.573 166.057 258.422 166.632 258.132C166.843 258.037 167.026 257.887 167.161 257.698C167.296 257.51 167.378 257.289 167.4 257.058V175.278Z" fill="#37474F"/>
<path d="M164.76 176.79C166.208 176.79 167.382 176.113 167.382 175.278C167.382 174.443 166.208 173.766 164.76 173.766C163.312 173.766 162.138 174.443 162.138 175.278C162.138 176.113 163.312 176.79 164.76 176.79Z" fill="#455A64"/>
</svg>
