<svg width="319" height="571" viewBox="0 0 319 571" fill="none" xmlns="http://www.w3.org/2000/svg">
<path fill-rule="evenodd" clip-rule="evenodd" d="M72.45 110.878C143.828 137.803 241.229 72.2913 297.01 124.332C341.961 166.271 305.627 248.809 280.367 304.856C257.426 355.756 197.91 376.838 163.42 420.742C127.363 466.64 130.088 552.071 73.8589 567.726C16.0139 583.832 -31.6216 517.034 -85.2215 489.97C-123.277 470.754 -159.03 451.803 -196.389 431.268C-243.115 405.585 -299.189 394.795 -333.152 353.693C-372.366 306.235 -403.001 246.383 -399.969 184.895C-396.852 121.695 -369.749 52.2915 -316.594 17.9612C-263.148 -16.5574 -192.756 11.1936 -129.144 9.9804C-85.6688 9.15127 -39.8169 -7.52059 -0.932138 11.9411C36.4222 30.6369 33.3666 96.1343 72.45 110.878Z" fill="#605DEC" fill-opacity="0.1"/>
</svg>
