<svg width="360" height="583" viewBox="0 0 360 583" fill="none" xmlns="http://www.w3.org/2000/svg">
<path fill-rule="evenodd" clip-rule="evenodd" d="M364.225 134.142C436.211 108.887 468.715 -3.90653 544.896 0.104354C606.288 3.33659 631.509 89.9196 648.185 149.092C663.33 202.829 631.289 257.235 633.089 313.037C634.97 371.374 691.972 435.066 658.961 483.202C625.001 532.722 545.574 512.172 487.117 525.892C445.614 535.634 406.043 544.098 364.225 552.382C311.922 562.742 262.032 590.52 209.594 580.865C149.049 569.717 87.1092 543.559 49.9086 494.507C11.6721 444.09 -12.1776 373.502 6.47389 313.037C25.2278 252.239 96.9891 228.251 144.939 186.432C177.71 157.852 202.118 115.607 244.416 105.521C285.048 95.8319 324.808 147.97 364.225 134.142Z" fill="#605DEC" fill-opacity="0.1"/>
</svg>
