<svg width="32" height="32" viewBox="0 0 32 32" fill="none" xmlns="http://www.w3.org/2000/svg">
<path d="M17.5833 28.5685C20.7774 28.1621 23.6968 26.5547 25.7483 24.0731C27.7998 21.5915 28.8293 18.4218 28.6277 15.2083C28.4261 11.9948 27.0084 8.97871 24.6628 6.77295C22.3172 4.5672 19.2198 3.33734 16 3.33335C12.7763 3.33095 9.67292 4.55781 7.32229 6.76393C4.97165 8.97005 3.55063 11.9894 3.34876 15.2068C3.14689 18.4242 4.17937 21.5976 6.23581 24.0802C8.29226 26.5628 11.2179 28.168 14.4167 28.5685V19.1667H11.25V16H14.4167V13.3812C14.4167 11.2643 14.6383 10.4964 15.05 9.7221C15.4555 8.95606 16.0823 8.32986 16.8487 7.92502C17.4535 7.60044 18.2056 7.40569 19.5197 7.32177C20.0407 7.28852 20.7152 7.32969 21.5432 7.44844V10.4568H20.75C19.2981 10.4568 18.698 10.5249 18.3402 10.7164C18.1266 10.8263 17.9528 11.0001 17.843 11.2136C17.653 11.5714 17.5833 11.9261 17.5833 13.3796V16H21.5417L20.75 19.1667H17.5833V28.5685ZM16 31.8334C7.25525 31.8334 0.166667 24.7448 0.166667 16C0.166667 7.25527 7.25525 0.166687 16 0.166687C24.7447 0.166687 31.8333 7.25527 31.8333 16C31.8333 24.7448 24.7447 31.8334 16 31.8334Z" fill="#27254C"/>
</svg>
