<svg width="32" height="32" viewBox="0 0 32 32" fill="none" xmlns="http://www.w3.org/2000/svg">
<path d="M16 11.25C14.7402 11.25 13.532 11.7505 12.6412 12.6413C11.7504 13.5321 11.25 14.7402 11.25 16C11.25 17.2598 11.7504 18.468 12.6412 19.3588C13.532 20.2496 14.7402 20.75 16 20.75C17.2598 20.75 18.468 20.2496 19.3588 19.3588C20.2496 18.468 20.75 17.2598 20.75 16C20.75 14.7402 20.2496 13.5321 19.3588 12.6413C18.468 11.7505 17.2598 11.25 16 11.25ZM16 8.08335C18.0996 8.08335 20.1133 8.91743 21.5979 10.4021C23.0826 11.8868 23.9167 13.9004 23.9167 16C23.9167 18.0996 23.0826 20.1133 21.5979 21.5979C20.1133 23.0826 18.0996 23.9167 16 23.9167C13.9004 23.9167 11.8867 23.0826 10.4021 21.5979C8.91741 20.1133 8.08334 18.0996 8.08334 16C8.08334 13.9004 8.91741 11.8868 10.4021 10.4021C11.8867 8.91743 13.9004 8.08335 16 8.08335ZM26.2917 7.68752C26.2917 8.21243 26.0832 8.71584 25.712 9.087C25.3408 9.45817 24.8374 9.66669 24.3125 9.66669C23.7876 9.66669 23.2842 9.45817 22.913 9.087C22.5419 8.71584 22.3333 8.21243 22.3333 7.68752C22.3333 7.16261 22.5419 6.6592 22.913 6.28804C23.2842 5.91687 23.7876 5.70835 24.3125 5.70835C24.8374 5.70835 25.3408 5.91687 25.712 6.28804C26.0832 6.6592 26.2917 7.16261 26.2917 7.68752ZM16 3.33335C12.0828 3.33335 11.4432 3.34444 9.62076 3.42519C8.37942 3.48377 7.54659 3.65002 6.77392 3.95085C6.08675 4.21685 5.59117 4.5351 5.06392 5.06394C4.56835 5.54274 4.18731 6.12728 3.94925 6.77394C3.64842 7.54977 3.48217 8.38102 3.42517 9.62077C3.34284 11.3688 3.33334 11.9799 3.33334 16C3.33334 19.9172 3.34442 20.5569 3.42517 22.3793C3.48376 23.619 3.65 24.4534 3.94925 25.2245C4.21842 25.9133 4.53509 26.4089 5.06075 26.9345C5.59434 27.4665 6.08992 27.7848 6.77075 28.0476C7.55292 28.35 8.38575 28.5179 9.62076 28.5749C11.3688 28.6572 11.9799 28.6667 16 28.6667C19.9172 28.6667 20.5568 28.6556 22.3793 28.5749C23.6174 28.5163 24.4518 28.35 25.2245 28.0508C25.9101 27.7832 26.4088 27.4649 26.9345 26.9393C27.4681 26.4057 27.7863 25.9101 28.0492 25.2293C28.35 24.4487 28.5178 23.6143 28.5748 22.3793C28.6572 20.6313 28.6667 20.0201 28.6667 16C28.6667 12.0829 28.6556 11.4432 28.5748 9.62077C28.5163 8.3826 28.35 7.5466 28.0492 6.77394C27.8106 6.12794 27.4302 5.54362 26.9361 5.06394C26.4575 4.56811 25.8729 4.18703 25.2261 3.94927C24.4503 3.64844 23.6174 3.48219 22.3793 3.42519C20.6313 3.34285 20.0201 3.33335 16 3.33335ZM16 0.166687C20.3019 0.166687 20.8387 0.18252 22.5265 0.261687C24.2128 0.340854 25.3607 0.60527 26.3708 0.997937C27.4158 1.4001 28.2962 1.94477 29.1765 2.82352C29.9816 3.61502 30.6046 4.57245 31.0021 5.62919C31.3932 6.63777 31.6592 7.78727 31.7383 9.47352C31.8128 11.1614 31.8333 11.6981 31.8333 16C31.8333 20.3019 31.8175 20.8387 31.7383 22.5265C31.6592 24.2128 31.3932 25.3607 31.0021 26.3709C30.6057 27.4282 29.9826 28.3858 29.1765 29.1765C28.3848 29.9814 27.4274 30.6043 26.3708 31.0021C25.3623 31.3932 24.2128 31.6592 22.5265 31.7384C20.8387 31.8128 20.3019 31.8334 16 31.8334C11.6981 31.8334 11.1613 31.8175 9.4735 31.7384C7.78725 31.6592 6.63934 31.3932 5.62917 31.0021C4.57202 30.6054 3.61442 29.9823 2.8235 29.1765C2.01823 28.3851 1.39523 27.4277 0.997922 26.3709C0.605255 25.3623 0.340838 24.2128 0.261672 22.5265C0.187255 20.8387 0.166672 20.3019 0.166672 16C0.166672 11.6981 0.182505 11.1614 0.261672 9.47352C0.340838 7.78569 0.605255 6.63935 0.997922 5.62919C1.39413 4.5718 2.01728 3.61411 2.8235 2.82352C3.61465 2.01797 4.57218 1.39492 5.62917 0.997937C6.63934 0.60527 7.78567 0.340854 9.4735 0.261687C11.1613 0.18727 11.6981 0.166687 16 0.166687Z" fill="#27254C"/>
</svg>
