<svg width="32" height="30" viewBox="0 0 32 30" fill="none" xmlns="http://www.w3.org/2000/svg">
<path d="M1.74999 0.75H30.25C30.6699 0.75 31.0726 0.916815 31.3696 1.21375C31.6665 1.51068 31.8333 1.91341 31.8333 2.33333V27.6667C31.8333 28.0866 31.6665 28.4893 31.3696 28.7863C31.0726 29.0832 30.6699 29.25 30.25 29.25H1.74999C1.33006 29.25 0.927337 29.0832 0.630404 28.7863C0.333471 28.4893 0.166656 28.0866 0.166656 27.6667V2.33333C0.166656 1.91341 0.333471 1.51068 0.630404 1.21375C0.927337 0.916815 1.33006 0.75 1.74999 0.75ZM28.6667 7.46017L16.114 18.7018L3.33332 7.42533V26.0833H28.6667V7.46017ZM4.14241 3.91667L16.0966 14.4648L27.8782 3.91667H4.14241Z" fill="#27254C"/>
</svg>
