<svg width="32" height="32" viewBox="0 0 32 32" fill="none" xmlns="http://www.w3.org/2000/svg">
<path d="M8.48392 26.2822L9.63025 26.9519C11.5634 28.0794 13.7621 28.6713 16 28.6667C18.5052 28.6667 20.9542 27.9238 23.0372 26.532C25.1202 25.1401 26.7438 23.1619 27.7025 20.8473C28.6612 18.5328 28.912 15.986 28.4233 13.5289C27.9345 11.0718 26.7282 8.8148 24.9567 7.04333C23.1852 5.27187 20.9282 4.06549 18.4711 3.57674C16.0141 3.08799 13.4672 3.33884 11.1527 4.29755C8.83815 5.25626 6.85989 6.87977 5.46805 8.9628C4.07622 11.0458 3.33334 13.4948 3.33334 16C3.33334 18.2737 3.93025 20.4539 5.04967 22.3714L5.71784 23.5177L4.68392 27.3193L8.48392 26.2822ZM0.173003 31.8334L2.31367 23.9674C0.903138 21.5494 0.162072 18.7993 0.16667 16C0.16667 7.25527 7.25525 0.166687 16 0.166687C24.7448 0.166687 31.8333 7.25527 31.8333 16C31.8333 24.7448 24.7448 31.8334 16 31.8334C13.2019 31.8379 10.453 31.0974 8.03584 29.6879L0.173003 31.8334ZM10.2858 8.57102C10.4979 8.55519 10.7117 8.55519 10.9238 8.56469C11.0093 8.57102 11.0948 8.58052 11.1803 8.59002C11.4321 8.61852 11.7092 8.7721 11.8026 8.98427C12.2744 10.0546 12.7336 11.1329 13.1769 12.2143C13.2751 12.4549 13.2165 12.7637 13.0297 13.0645C12.9012 13.2679 12.7622 13.4645 12.6133 13.6535C12.4343 13.8831 12.0496 14.3043 12.0496 14.3043C12.0496 14.3043 11.8928 14.4911 11.953 14.7239C11.9752 14.8125 12.048 14.9408 12.1145 15.0484L12.2079 15.1989C12.6133 15.8749 13.1579 16.5605 13.8229 17.2065C14.0129 17.3902 14.1982 17.5786 14.3977 17.7544C15.1387 18.4083 15.9778 18.9419 16.8835 19.3377L16.8914 19.3409C17.026 19.3994 17.0941 19.4311 17.2904 19.515C17.3886 19.5562 17.4899 19.5926 17.5928 19.6195C17.6992 19.6466 17.8112 19.6415 17.9146 19.6049C18.0181 19.5682 18.1083 19.5017 18.1739 19.4137C19.3203 18.0251 19.4248 17.9349 19.4343 17.9349V17.938C19.5139 17.8637 19.6085 17.8074 19.7117 17.7727C19.815 17.738 19.9244 17.7258 20.0328 17.7369C20.1278 17.7433 20.2243 17.7607 20.313 17.8003C21.1538 18.185 22.5297 18.7851 22.5297 18.7851L23.4512 19.1984C23.6063 19.2728 23.7473 19.4485 23.752 19.6179C23.7583 19.724 23.7678 19.895 23.7314 20.2085C23.6808 20.6186 23.5573 21.111 23.4338 21.3691C23.3492 21.5452 23.2369 21.7067 23.1013 21.8473C22.9415 22.015 22.7666 22.1677 22.5788 22.3033C22.5138 22.3521 22.4478 22.3996 22.3808 22.4458C22.1839 22.5707 21.9816 22.6869 21.7744 22.7941C21.3668 23.0106 20.9165 23.135 20.4555 23.1583C20.1626 23.1741 19.8697 23.1963 19.5752 23.1804C19.5625 23.1804 18.6758 23.0427 18.6758 23.0427C16.4247 22.4506 14.3429 21.3413 12.5958 19.8032C12.238 19.4881 11.9071 19.1493 11.5683 18.812C10.1591 17.4108 9.09509 15.8987 8.44909 14.4705C8.11844 13.7696 7.93983 13.0066 7.925 12.2317C7.91848 11.2704 8.23272 10.3343 8.818 9.57169C8.93359 9.42285 9.04284 9.26769 9.23125 9.08877C9.43234 8.89877 9.559 8.79744 9.69675 8.72777C9.8799 8.63599 10.0797 8.58213 10.2842 8.56944L10.2858 8.57102Z" fill="#27254C"/>
</svg>
